<svg width="168" height="168" viewBox="0 0 168 168" fill="none" xmlns="http://www.w3.org/2000/svg">
<g filter="url(#filter0_d_4_32)">
<rect x="6" y="2" width="156" height="156" rx="18" stroke="#FF0000" stroke-width="4"/>
<path d="M72.125 139.117H77.1016V141H69.7812V129.625H72.125V139.117ZM96.3047 138.016C96.3047 137.573 96.1484 137.234 95.8359 137C95.5234 136.76 94.9609 136.51 94.1484 136.25C93.3359 135.984 92.6927 135.724 92.2188 135.469C90.9271 134.771 90.2812 133.831 90.2812 132.648C90.2812 132.034 90.4531 131.487 90.7969 131.008C91.1458 130.523 91.6432 130.146 92.2891 129.875C92.9401 129.604 93.6693 129.469 94.4766 129.469C95.2891 129.469 96.013 129.617 96.6484 129.914C97.2839 130.206 97.776 130.62 98.125 131.156C98.4792 131.693 98.6562 132.302 98.6562 132.984H96.3125C96.3125 132.464 96.1484 132.06 95.8203 131.773C95.4922 131.482 95.0312 131.336 94.4375 131.336C93.8646 131.336 93.4193 131.458 93.1016 131.703C92.7839 131.943 92.625 132.26 92.625 132.656C92.625 133.026 92.8099 133.336 93.1797 133.586C93.5547 133.836 94.1042 134.07 94.8281 134.289C96.1615 134.69 97.1328 135.188 97.7422 135.781C98.3516 136.375 98.6562 137.115 98.6562 138C98.6562 138.984 98.2839 139.758 97.5391 140.32C96.7943 140.878 95.7917 141.156 94.5312 141.156C93.6562 141.156 92.8594 140.997 92.1406 140.68C91.4219 140.357 90.8724 139.917 90.4922 139.359C90.1172 138.802 89.9297 138.156 89.9297 137.422H92.2812C92.2812 138.677 93.0312 139.305 94.5312 139.305C95.0885 139.305 95.5234 139.193 95.8359 138.969C96.1484 138.74 96.3047 138.422 96.3047 138.016Z" fill="#FF0000"/>
<path d="M125.827 99.65C123.027 108.35 118.927 113.85 113.527 116.15C110.627 117.35 107.877 118.15 105.277 118.55C102.777 118.85 99.5266 119 95.5266 119H50.0766C46.0766 119 44.0766 116.2 44.0766 110.6C44.0766 96.3 56.0266 67.6 79.9266 24.5C81.7266 21.6 82.6766 20.05 82.7766 19.85C74.2766 20.05 65.6266 21.8 56.8266 25.1C48.1266 28.3 43.0766 32.15 41.6766 36.65C41.5766 36.95 41.3766 37.1 41.0766 37.1C40.1766 37.1 39.7266 36.45 39.7266 35.15C39.7266 34.95 40.1766 33.6 41.0766 31.1C41.8766 28.6 43.4266 26 45.7266 23.3C48.0266 20.6 50.6266 18.6 53.5266 17.3C58.4266 15.3 64.4766 14.3 71.6766 14.3H105.727C101.627 17.4 96.3266 24.75 89.8266 36.35C83.4266 47.95 77.1266 60.7 70.9266 74.6C64.8266 88.4 61.7766 98.25 61.7766 104.15C61.7766 110.65 65.3266 113.9 72.4266 113.9C101.427 113.9 118.727 108.2 124.327 96.8C124.527 96.5 124.777 96.35 125.077 96.35C125.777 96.35 126.127 96.85 126.127 97.85C126.127 98.05 126.027 98.65 125.827 99.65Z" fill="#FF0000"/>
</g>
<defs>
<filter id="filter0_d_4_32" x="0" y="0" width="168" height="168" filterUnits="userSpaceOnUse" color-interpolation-filters="sRGB">
<feFlood flood-opacity="0" result="BackgroundImageFix"/>
<feColorMatrix in="SourceAlpha" type="matrix" values="0 0 0 0 0 0 0 0 0 0 0 0 0 0 0 0 0 0 127 0" result="hardAlpha"/>
<feOffset dy="4"/>
<feGaussianBlur stdDeviation="2"/>
<feComposite in2="hardAlpha" operator="out"/>
<feColorMatrix type="matrix" values="0 0 0 0 0 0 0 0 0 0 0 0 0 0 0 0 0 0 0.25 0"/>
<feBlend mode="normal" in2="BackgroundImageFix" result="effect1_dropShadow_4_32"/>
<feBlend mode="normal" in="SourceGraphic" in2="effect1_dropShadow_4_32" result="shape"/>
</filter>
</defs>
</svg>
